<svg width="179" height="19" viewBox="0 0 179 19" fill="none" xmlns="http://www.w3.org/2000/svg">
<path d="M175.474 9.68692C176.272 9.68692 177.071 9.68692 177.869 9.68692C177.964 9.68692 178.059 9.68962 178.156 9.68962C178.238 9.68962 178.317 9.70584 178.391 9.73558C178.537 9.79776 178.637 9.90319 178.657 10.0762C178.665 10.1519 178.673 10.2303 178.665 10.3087C178.642 10.625 178.609 10.9413 178.568 11.2549C178.524 11.5929 178.499 11.9308 178.466 12.2714C178.417 12.7553 178.379 13.242 178.315 13.7259C178.225 14.3936 178.005 15.0127 177.665 15.5832C177.168 16.4131 176.495 17.043 175.699 17.5378C174.895 18.0379 174.033 18.3704 173.122 18.5732C172.459 18.7192 171.791 18.8057 171.115 18.7922C170.225 18.7733 169.349 18.6381 168.502 18.3326C167.888 18.1109 167.312 17.8135 166.8 17.381C166.237 16.9052 165.825 16.3158 165.603 15.5859C165.516 15.2966 165.467 14.9992 165.446 14.6991C165.421 14.3261 165.446 13.9584 165.503 13.588C165.59 13.023 165.672 12.458 165.756 11.8902C165.859 11.2036 165.963 10.5142 166.066 9.8275C166.168 9.15434 166.268 8.48388 166.37 7.81071C166.585 6.3941 167.215 5.2208 168.249 4.29081C168.789 3.80419 169.39 3.4284 170.04 3.13102C170.69 2.83364 171.364 2.62548 172.06 2.50923C172.618 2.41731 173.181 2.36324 173.746 2.40379C174.629 2.46597 175.489 2.64981 176.303 3.02559C176.961 3.32838 177.557 3.72849 178.048 4.29081C178.471 4.77202 178.765 5.32623 178.911 5.96425C178.942 6.09942 178.967 6.2373 178.977 6.37518C179.008 6.73744 179.013 7.10241 178.957 7.46467C178.947 7.52685 178.936 7.58633 178.916 7.6458C178.862 7.8026 178.768 7.90534 178.606 7.94318C178.519 7.96211 178.435 7.97563 178.345 7.97563C177.547 7.97563 176.748 7.97563 175.95 7.97833C175.868 7.97833 175.791 7.96752 175.712 7.94318C175.551 7.89723 175.466 7.78098 175.433 7.61877C175.423 7.5674 175.417 7.51063 175.415 7.45656C175.392 6.94831 175.162 6.56172 174.788 6.25893C174.483 6.01291 174.135 5.87504 173.764 5.80204C173.27 5.70472 172.771 5.68039 172.277 5.78582C171.394 5.97506 170.721 6.47791 170.304 7.33491C170.145 7.66202 170.053 8.00807 170.007 8.37303C169.93 8.9705 169.838 9.56526 169.756 10.1627C169.68 10.7223 169.608 11.282 169.534 11.8389C169.48 12.2444 169.424 12.6499 169.367 13.0554C169.331 13.3096 169.324 13.5664 169.36 13.8205C169.459 14.5315 169.856 14.9911 170.473 15.256C170.859 15.421 171.266 15.4669 171.681 15.4642C172.093 15.4615 172.5 15.421 172.894 15.2858C173.726 14.9992 174.261 14.4153 174.504 13.5312C174.547 13.3744 174.578 13.2149 174.609 13.0581C174.629 12.9554 174.611 12.9419 174.506 12.9365C174.447 12.9338 174.389 12.9365 174.33 12.9365C173.728 12.9365 173.127 12.9365 172.528 12.9365C172.426 12.9365 172.323 12.9365 172.223 12.9067C171.988 12.8364 171.878 12.6959 171.881 12.4363C171.881 12.2822 171.901 12.1281 171.919 11.974C171.97 11.5604 172.026 11.1468 172.083 10.7332C172.101 10.5953 172.119 10.4574 172.139 10.3195C172.149 10.2573 172.162 10.1979 172.18 10.1384C172.246 9.92212 172.385 9.78695 172.589 9.72477C172.705 9.68962 172.82 9.68962 172.937 9.68962C173.787 9.68692 174.632 9.68692 175.474 9.68692Z" fill="#141A28"/>
<path d="M40.9611 13.0692C41.3425 13.0692 41.7238 13.0665 42.1051 13.0692C42.2305 13.0692 42.3559 13.0746 42.4762 13.099C42.7066 13.1422 42.8013 13.2558 42.8294 13.5045C42.8371 13.5802 42.8371 13.6586 42.8371 13.737C42.8448 14.3399 43.1033 14.7859 43.5895 15.0887C43.9171 15.2915 44.278 15.3861 44.6516 15.4402C45.2531 15.5267 45.8494 15.5105 46.4482 15.4077C46.7246 15.3591 46.9883 15.2671 47.2288 15.1103C47.7381 14.7751 47.948 14.275 47.9352 13.6586C47.9326 13.491 47.8686 13.345 47.7663 13.2152C47.623 13.0314 47.4361 12.9124 47.2339 12.8124C46.9601 12.6772 46.6735 12.5853 46.3817 12.5096C45.921 12.3853 45.4552 12.2744 44.992 12.1582C44.5057 12.0365 44.0297 11.8851 43.5588 11.7148C43.1212 11.558 42.6887 11.3877 42.274 11.1768C41.8441 10.9578 41.4346 10.701 41.0814 10.3577C40.5235 9.81696 40.1933 9.15462 40.1345 8.35169C40.0219 6.77287 40.5056 5.43195 41.583 4.33164C42.0565 3.84772 42.6093 3.48275 43.2031 3.19078C43.8915 2.85285 44.6158 2.63116 45.3657 2.51491C45.8724 2.43381 46.3817 2.37433 46.8987 2.41218C47.7049 2.46896 48.5008 2.59331 49.266 2.88259C49.8495 3.10157 50.3972 3.39354 50.8758 3.81528C51.4158 4.29109 51.7946 4.87504 51.9686 5.59686C52.0915 6.10511 52.0915 6.62418 52.0121 7.14054C52.0019 7.20001 51.9865 7.26219 51.9609 7.31896C51.8995 7.46225 51.7946 7.55417 51.6436 7.57579C51.5566 7.58931 51.4696 7.60013 51.38 7.60013C50.5968 7.60283 49.8111 7.60283 49.028 7.60283C48.9998 7.60283 48.9691 7.60013 48.941 7.60013C48.7337 7.58931 48.6006 7.47306 48.5315 7.2703C48.5059 7.1892 48.4854 7.1081 48.465 7.02429C48.3319 6.51874 48.0504 6.14296 47.5974 5.92128C47.0522 5.65363 46.4764 5.57253 45.8826 5.62119C45.4834 5.65093 45.1021 5.75096 44.7412 5.9375C44.4674 6.08078 44.2293 6.27273 44.0809 6.562C43.9325 6.85397 43.8813 7.15946 44.022 7.47306C44.1039 7.65149 44.2319 7.78937 44.3778 7.91102C44.5979 8.09486 44.841 8.23544 45.0969 8.35709C45.3989 8.50038 45.7061 8.62203 46.0234 8.71936C46.5583 8.88427 47.0983 9.03026 47.6281 9.20598C48.25 9.41144 48.8796 9.59528 49.481 9.86563C49.998 10.0981 50.4791 10.3847 50.8809 10.8064C51.3211 11.2687 51.5898 11.8283 51.6948 12.4718C51.7971 13.1125 51.7613 13.7505 51.6282 14.3858C51.5259 14.8805 51.3646 15.3509 51.1266 15.7916C50.7862 16.4296 50.323 16.9514 49.7625 17.3758C49.2763 17.7462 48.7465 18.022 48.1834 18.2301C47.4745 18.4924 46.7477 18.6546 45.9978 18.7249C45.6037 18.7627 45.2095 18.7979 44.8129 18.8006C44.2549 18.806 43.6996 18.7465 43.1519 18.6411C42.5146 18.5167 41.9004 18.3166 41.3169 18.0139C40.6643 17.6759 40.0833 17.2407 39.6329 16.6297C39.1312 15.9484 38.8958 15.1779 38.9163 14.3182C38.9214 14.0938 38.9342 13.8695 38.9854 13.6505C38.9905 13.6288 38.993 13.6045 38.9982 13.5829C39.0826 13.2368 39.208 13.1206 39.5459 13.0909C39.6764 13.08 39.8095 13.08 39.94 13.08C40.288 13.0665 40.6233 13.0665 40.9611 13.0692C40.9611 13.0692 40.9611 13.0665 40.9611 13.0692Z" fill="#141A28"/>
<path d="M110.356 13.0692C110.737 13.0692 111.119 13.0665 111.5 13.0692C111.618 13.0692 111.736 13.0747 111.851 13.0936C112.109 13.1368 112.219 13.2693 112.232 13.5451C112.235 13.6072 112.232 13.6694 112.235 13.7316C112.242 14.3318 112.501 14.7832 112.984 15.086C113.312 15.2888 113.673 15.3834 114.047 15.4375C114.648 15.524 115.244 15.5078 115.843 15.405C116.135 15.3537 116.411 15.2536 116.662 15.0833C116.959 14.8833 117.159 14.6048 117.261 14.2507C117.31 14.0803 117.343 13.9046 117.34 13.7262C117.338 13.4964 117.261 13.3044 117.11 13.1422C116.969 12.9908 116.798 12.8881 116.616 12.7989C116.314 12.6529 115.997 12.5583 115.677 12.4745C115.073 12.3177 114.464 12.1744 113.862 12.0041C113.097 11.7878 112.347 11.5175 111.633 11.1525C111.137 10.8984 110.671 10.5902 110.29 10.1576C109.862 9.6737 109.599 9.10327 109.537 8.44093C109.404 7.02972 109.77 5.77531 110.64 4.69393C111.042 4.19379 111.528 3.79638 112.068 3.47197C113.033 2.89343 114.075 2.58253 115.173 2.44736C115.782 2.37166 116.386 2.39599 116.992 2.47169C117.351 2.51494 117.704 2.58523 118.049 2.67985C118.786 2.87991 119.483 3.17729 120.097 3.66121C120.568 4.03429 120.946 4.48847 121.19 5.0589C121.341 5.41575 121.433 5.78883 121.453 6.17813C121.471 6.47281 121.463 6.76748 121.422 7.05946C121.41 7.15949 121.387 7.25681 121.338 7.34602C121.277 7.46227 121.19 7.53797 121.067 7.5596C120.967 7.57582 120.862 7.58934 120.762 7.58934C119.984 7.59204 119.209 7.59204 118.431 7.59204C118.408 7.59204 118.387 7.59204 118.364 7.58934C118.118 7.57041 117.993 7.47038 117.916 7.21896C117.903 7.17571 117.893 7.12975 117.883 7.08379C117.732 6.42415 117.335 6.00511 116.734 5.79154C116.145 5.58337 115.541 5.53741 114.932 5.65095C114.548 5.72395 114.177 5.85101 113.857 6.09973C113.594 6.30519 113.417 6.56472 113.35 6.91347C113.304 7.15138 113.353 7.35954 113.471 7.55419C113.553 7.69207 113.663 7.80561 113.786 7.90834C114.001 8.08677 114.239 8.22195 114.487 8.3409C114.789 8.48418 115.096 8.60854 115.413 8.70586C115.948 8.87078 116.488 9.01676 117.018 9.19249C117.64 9.39795 118.269 9.58179 118.871 9.85213C119.393 10.0873 119.884 10.3766 120.286 10.8092C120.775 11.3309 121.041 11.9608 121.118 12.6854C121.192 13.3964 121.12 14.0939 120.926 14.7751C120.65 15.7538 120.125 16.5567 119.37 17.1947C118.861 17.6246 118.295 17.9436 117.686 18.1815C116.946 18.4681 116.184 18.6411 115.398 18.7168C114.917 18.7627 114.433 18.806 113.949 18.7898C113.079 18.76 112.229 18.6195 111.408 18.3113C110.755 18.0652 110.144 17.7354 109.611 17.2569C109.138 16.8352 108.769 16.3323 108.542 15.7213C108.357 15.2239 108.286 14.7048 108.321 14.1723C108.334 13.9938 108.337 13.8154 108.38 13.6424C108.398 13.5748 108.416 13.5072 108.434 13.4423C108.493 13.2342 108.634 13.1206 108.831 13.0909C108.938 13.0747 109.051 13.0692 109.158 13.0665C109.565 13.0665 109.959 13.0665 110.356 13.0692C110.356 13.0692 110.356 13.0665 110.356 13.0692Z" fill="#141A28"/>
<path d="M102.704 2.75551C104.418 2.75551 106.133 2.75551 107.848 2.75551C107.981 2.75551 108.111 2.7528 108.242 2.77984C108.49 2.83391 108.605 2.97719 108.616 3.24754C108.623 3.4503 108.595 3.65035 108.567 3.84771C108.511 4.25322 108.485 4.66415 108.439 5.06967C108.419 5.2535 108.393 5.43734 108.357 5.61847C108.303 5.90234 108.127 6.05914 107.861 6.09969C107.753 6.11591 107.64 6.11591 107.533 6.11591C106.514 6.11591 105.496 6.11591 104.477 6.11591C104.426 6.11591 104.375 6.11591 104.324 6.11591C104.137 6.11861 104.106 6.08887 104.081 6.33759C104.05 6.67553 104.001 7.01346 103.958 7.35139C103.889 7.89479 103.817 8.43818 103.748 8.98428C103.712 9.27626 103.684 9.56823 103.648 9.8602C103.581 10.4036 103.507 10.947 103.441 11.4931C103.405 11.7851 103.377 12.077 103.341 12.369C103.274 12.9124 103.2 13.4558 103.134 14.0019C103.098 14.2939 103.07 14.5859 103.034 14.8778C102.967 15.4212 102.893 15.9673 102.826 16.5107C102.791 16.8027 102.762 17.0947 102.727 17.3866C102.706 17.5461 102.683 17.7083 102.652 17.8679C102.583 18.2382 102.381 18.3707 102.084 18.4167C102.013 18.4275 101.938 18.4275 101.864 18.4275C101.081 18.4275 100.295 18.4275 99.5122 18.4275C99.3868 18.4275 99.264 18.4194 99.1437 18.3788C99.0055 18.3328 98.921 18.2382 98.8852 18.0895C98.8596 17.9814 98.857 17.8733 98.8724 17.7678C98.9568 17.1244 99.0413 16.481 99.1283 15.8376C99.2281 15.1022 99.3279 14.3669 99.4303 13.6315C99.5096 13.0638 99.589 12.4988 99.6658 11.9338C99.7502 11.3282 99.8296 10.7226 99.914 10.1197C99.9806 9.63041 100.052 9.14108 100.119 8.65176C100.198 8.07051 100.272 7.48656 100.349 6.90532C100.375 6.71337 100.411 6.52413 100.434 6.33219C100.457 6.12672 100.451 6.12132 100.26 6.12132C99.1821 6.12132 98.1046 6.12132 97.0271 6.12132C96.9171 6.12132 96.807 6.12132 96.6996 6.10509C96.4232 6.06184 96.3029 5.91045 96.3131 5.61307C96.3182 5.46708 96.3412 5.32109 96.3643 5.1751C96.4462 4.63171 96.5306 4.09102 96.6125 3.54762C96.633 3.40974 96.6586 3.27457 96.7123 3.14481C96.7942 2.95286 96.9299 2.83661 97.1193 2.79065C97.2421 2.76091 97.365 2.75551 97.4904 2.75551C97.9741 2.75551 98.4578 2.75551 98.9415 2.75551C100.196 2.75551 101.45 2.75551 102.704 2.75551Z" fill="#141A28"/>
<path d="M143.703 18.4301C142.055 18.4301 140.404 18.4301 138.756 18.4301C138.626 18.4301 138.493 18.4328 138.365 18.3922C138.139 18.3192 138.052 18.2057 138.05 17.9543C138.047 17.8705 138.05 17.784 138.06 17.7002C138.155 17.0108 138.254 16.3241 138.349 15.6347C138.439 14.9832 138.526 14.3316 138.615 13.6828C138.72 12.9096 138.828 12.1364 138.935 11.3632C139.035 10.636 139.137 9.90878 139.237 9.18155C139.342 8.42458 139.447 7.66491 139.552 6.90794C139.652 6.18882 139.752 5.46969 139.854 4.75057C139.913 4.32343 139.972 3.89358 140.036 3.46643C140.051 3.3664 140.077 3.26908 140.107 3.17446C140.171 2.9744 140.304 2.85274 140.494 2.79867C140.594 2.76894 140.696 2.75812 140.798 2.75812C141.553 2.75812 142.308 2.75542 143.063 2.76083C143.158 2.76083 143.255 2.77434 143.345 2.79867C143.532 2.84734 143.632 2.9744 143.647 3.17716C143.662 3.35559 143.639 3.53402 143.616 3.70974C143.547 4.25314 143.475 4.79924 143.409 5.34263C143.319 6.06446 143.232 6.78358 143.143 7.5054C143.04 8.33266 142.938 9.16262 142.833 9.98988C142.777 10.4414 142.72 10.8955 142.662 11.347C142.592 11.8769 142.521 12.4041 142.454 12.9312C142.416 13.2367 142.395 13.5476 142.347 13.8531C142.298 14.1748 142.27 14.4966 142.227 14.8183C142.221 14.8561 142.221 14.8967 142.216 14.9345C142.193 15.0751 142.227 15.0913 142.357 15.0913C142.424 15.0913 142.49 15.0913 142.554 15.0913C144.678 15.0913 146.805 15.0913 148.929 15.0913C149.047 15.0913 149.165 15.0967 149.28 15.1075C149.344 15.1156 149.41 15.1346 149.469 15.1643C149.615 15.2346 149.692 15.3535 149.707 15.5239C149.723 15.6861 149.705 15.8483 149.692 16.0105C149.641 16.589 149.579 17.1649 149.526 17.7434C149.482 18.203 149.277 18.4112 148.824 18.4328C148.73 18.4382 148.635 18.4355 148.538 18.4355C146.928 18.4301 145.316 18.4301 143.703 18.4301Z" fill="#141A28"/>
<path d="M7.2373 3.22575C7.4139 3.12843 7.60584 3.08247 7.79267 3.01488C8.22263 2.86349 8.65515 2.72021 9.09023 2.58233C9.54578 2.43634 10.0013 2.29576 10.4594 2.16059C10.9176 2.02271 11.3757 1.88754 11.8363 1.76318C12.3533 1.6226 12.8728 1.49554 13.3949 1.36577C13.7865 1.26845 14.1806 1.17653 14.5722 1.09002C15.3451 0.919701 16.1206 0.760197 16.9012 0.622321C17.564 0.503368 18.2294 0.392526 18.8974 0.297905C18.9409 0.292498 18.9844 0.292498 19.0279 0.289795C19.0433 0.351975 19.0023 0.370899 18.9614 0.389823C18.9 0.416858 18.8334 0.424968 18.7694 0.438485C18.1706 0.565548 18.1706 0.565548 18.1706 1.21979C18.1706 1.9362 18.1731 2.65262 18.168 3.36904C18.168 3.54747 18.1962 3.70427 18.319 3.83403C18.36 4.00705 18.2192 3.98002 18.1424 3.99624C17.5973 4.11519 17.0573 4.25037 16.5173 4.39094C15.2018 4.73699 13.9042 5.14521 12.6297 5.62372C12.4096 5.70753 12.1844 5.77512 11.9643 5.86703C11.7237 5.96436 11.7263 5.97788 11.9106 6.1563C12.1051 6.34284 12.2945 6.53749 12.4966 6.71592C12.5811 6.79162 12.6502 6.88083 12.6937 6.98897C12.9112 7.20254 13.1313 7.41882 13.3489 7.63239C13.5587 7.83515 13.7686 8.03791 13.9785 8.24067C13.9836 8.24608 13.9887 8.25149 13.9938 8.25689C14.0757 8.3434 14.0732 8.37314 13.9759 8.42451C13.9042 8.46236 13.83 8.4948 13.7558 8.52724C13.6227 8.58942 13.4896 8.6489 13.354 8.71107C13.1697 8.8868 12.9343 8.95979 12.7142 9.05982C11.0634 9.80057 9.42037 10.5602 7.7722 11.3037C7.69798 11.3361 7.62632 11.3767 7.54442 11.3794C7.48811 11.3821 7.43693 11.374 7.46252 11.2902C7.72869 11.0901 7.74916 10.8036 7.74916 10.49C7.74148 8.24067 7.7466 5.98869 7.7466 3.73941C7.7466 3.6556 7.74404 3.56909 7.74404 3.48529C7.74404 3.31767 7.67238 3.24468 7.51371 3.2636C7.41901 3.27171 7.3192 3.30415 7.2373 3.22575Z" fill="#62A95C"/>
<path d="M16.9565 11.72C17.1306 11.6633 17.3046 11.6092 17.4786 11.5524C17.8907 11.4227 18.3053 11.2983 18.7173 11.1658C19.352 10.9631 19.9867 10.7549 20.6112 10.517C20.647 10.4792 20.7059 10.517 20.7417 10.4737H20.7443C20.9029 10.3034 21.1282 10.298 21.3201 10.2088C21.4916 10.1277 21.4993 10.1088 21.3559 9.98712C20.7801 9.48969 20.2299 8.95981 19.6515 8.46237C19.5951 8.41371 19.5312 8.37316 19.5184 8.28664L19.5158 8.28394C19.4953 8.27583 19.48 8.25961 19.4723 8.24069H19.4697C19.4518 8.22987 19.4365 8.21636 19.4237 8.20013C19.2624 8.05415 19.1038 7.90816 18.9425 7.75947C18.9041 7.72433 18.8658 7.68918 18.8299 7.64863C18.7992 7.61619 18.8094 7.57834 18.853 7.55671C18.9246 7.51886 18.9988 7.48372 19.0731 7.45128C19.8178 7.10523 20.5626 6.76189 21.3048 6.41855C22.0214 6.08603 22.7405 5.7535 23.4571 5.42368C23.5032 5.40205 23.5518 5.38853 23.6004 5.36961C23.6337 5.32635 23.7002 5.37231 23.7284 5.31284L23.7233 5.31554C23.754 5.29932 23.7924 5.30473 23.818 5.27229C23.8436 5.24795 23.8845 5.25606 23.9075 5.22903C23.9664 5.22092 24.0227 5.21281 24.0816 5.202C24.2198 5.17496 24.2889 5.24795 24.3145 5.38042C24.3349 5.48045 24.3298 5.58048 24.3298 5.68051C24.3298 8.58403 24.3298 11.4875 24.3298 14.3884C24.3298 14.5208 24.3349 14.6506 24.3017 14.7804C24.294 14.8047 24.2838 14.829 24.271 14.8534C24.2454 14.8966 24.2095 14.9236 24.1712 14.948C24.1532 14.9588 24.1353 14.9669 24.1174 14.975C24.0918 14.9885 24.0637 14.9993 24.0381 15.0129C24.0202 15.021 24.0022 15.0291 23.9843 15.0372C23.9459 15.0534 23.9127 15.0777 23.8768 15.0994C23.0758 15.4211 22.2619 15.6995 21.443 15.9645C20.7238 16.197 19.9995 16.4187 19.2676 16.6052C18.6866 16.7539 18.1082 16.8999 17.5272 17.0486C17.3558 17.0918 17.1843 17.1297 17.0103 17.154C16.611 17.1134 16.5854 17.0864 16.5854 16.6593C16.5854 15.2481 16.5905 13.8369 16.5803 12.4229C16.5752 12.0931 16.6545 11.8471 16.9565 11.72Z" fill="#46A74B"/>
<path d="M7.23629 3.22605C7.30283 3.23146 7.36681 3.22605 7.43079 3.19901C7.51525 3.16657 7.60482 3.17739 7.69184 3.18279C7.76094 3.1882 7.79933 3.22875 7.80701 3.30175C7.81212 3.35581 7.81213 3.40988 7.81213 3.46395C7.81213 5.89436 7.81213 8.32748 7.81213 10.7579C7.81213 10.8038 7.81724 10.8525 7.80957 10.8958C7.78653 11.0445 7.74302 11.1823 7.58947 11.2418C7.53572 11.2634 7.48198 11.2932 7.4615 11.3608C7.4615 11.4635 7.37705 11.477 7.31306 11.504C6.72187 11.7717 6.13068 12.0366 5.5446 12.3124C5.36545 12.3962 5.22725 12.3692 5.09417 12.2178C4.67956 11.7392 4.27775 11.2526 3.87339 10.766C3.684 10.5416 3.49461 10.3172 3.30779 10.0901C3.24892 10.0171 3.13631 9.93063 3.29499 9.83872C3.56627 9.9036 3.56627 9.9036 3.56627 9.60081C3.56627 8.21123 3.56627 6.82165 3.56627 5.43207C3.56627 5.27798 3.58931 5.12117 3.54324 4.97248C3.48438 4.78865 3.28475 4.9103 3.1875 4.79946C3.2694 4.73188 3.37177 4.70484 3.4639 4.66699C4.13955 4.39394 4.8152 4.12089 5.49597 3.85866C6.05902 3.64238 6.62718 3.43962 7.19278 3.23146C7.20813 3.22605 7.22349 3.22605 7.23629 3.22605Z" fill="#54A651"/>
<path d="M27.1653 4.42352C27.2395 4.43974 27.2932 4.49652 27.3521 4.53977C28.1916 5.17509 29.031 5.8104 29.8679 6.44842C30.8251 7.17565 31.7822 7.90018 32.7394 8.62741C33.2205 8.99237 33.7017 9.35734 34.1828 9.72501C34.2468 9.77367 34.3082 9.82774 34.3671 9.87641C34.3492 9.96021 34.2878 9.97914 34.2391 10.0062C34.0651 10.1035 33.8885 10.1981 33.7119 10.2954C33.2769 10.5928 32.8085 10.8307 32.3427 11.074C31.3011 11.6201 30.2825 12.2095 29.2332 12.7394C28.6471 13.034 28.0559 13.3233 27.4622 13.6018C27.3854 13.6396 27.2574 13.7721 27.1986 13.5585C27.2881 13.3828 27.3112 13.1963 27.3112 12.9989C27.3086 10.4009 27.3086 7.80285 27.3112 5.20482C27.3112 4.99936 27.2907 4.80471 27.1934 4.62358C27.1653 4.5614 27.132 4.49652 27.1653 4.42352Z" fill="#60AE5A"/>
<path d="M27.1662 4.42337C27.179 4.45041 27.1918 4.47744 27.2071 4.50448C27.33 4.69372 27.3888 4.89648 27.3863 5.13168C27.3811 7.78378 27.3811 10.4359 27.3811 13.088C27.3811 13.1339 27.3786 13.1799 27.3811 13.2258C27.3888 13.3502 27.3504 13.4529 27.2711 13.5421C27.2455 13.5692 27.2276 13.6043 27.2071 13.6341C27.2097 13.7503 27.115 13.7611 27.0484 13.7909C26.186 14.1639 25.3286 14.5559 24.4482 14.8831C24.374 14.9101 24.2998 14.9561 24.2204 14.8939C24.2537 14.7587 24.2614 14.6208 24.2614 14.483C24.2588 11.5064 24.2614 8.52993 24.2588 5.55342C24.2588 5.47502 24.2588 5.39932 24.2511 5.32363C24.246 5.26685 24.1948 5.229 24.1385 5.25063C24.0541 5.28037 23.9824 5.27496 23.9082 5.229C24.0438 5.11816 24.2102 5.0722 24.3612 5.00191C25.042 4.6802 25.7279 4.3666 26.4137 4.0503C26.4547 4.03137 26.4956 4.01515 26.5366 3.99893C26.5724 3.98541 26.6108 3.98541 26.6415 4.01245C26.813 4.15032 27.0126 4.25576 27.1662 4.42337Z" fill="#53AA51"/>
<path d="M6.67072 14.1424C6.56067 14.0072 6.44806 13.8748 6.33801 13.7396C6.3201 13.718 6.2945 13.6963 6.30218 13.6612C6.30986 13.6179 6.34825 13.6287 6.37384 13.626C6.55043 13.6152 6.72446 13.6017 6.90105 13.5963C7.25935 13.5855 7.61765 13.553 7.97339 13.5125C8.2933 13.4746 8.61577 13.453 8.93568 13.4152C9.532 13.3395 10.1283 13.2638 10.7195 13.1556C11.1674 13.0745 11.6153 13.0015 12.0606 12.915C12.4931 12.8312 12.9205 12.7285 13.353 12.6393C13.4247 12.6231 13.4989 12.6204 13.5705 12.6122C13.5808 12.6961 13.5168 12.7123 13.4656 12.7393C13.4068 12.769 13.3453 12.7988 13.2813 12.8177C12.9998 12.8961 12.9256 13.0881 12.9282 13.3881C12.941 14.7642 12.9333 16.1403 12.9333 17.519C12.9333 17.6515 12.9307 17.7813 12.9614 17.911C12.9896 18.0381 12.9 18.0516 12.8207 18.0624C12.0043 18.1922 11.1879 18.3247 10.3689 18.4301C10.2537 18.4382 10.1513 18.4004 10.0746 18.3057C9.62925 17.7542 9.16346 17.2216 8.71303 16.6728C8.21397 16.0673 7.70211 15.4752 7.21073 14.8642C7.02134 14.6317 6.77309 14.4452 6.67072 14.1424Z" fill="#62AF5C"/>
<path d="M12.9648 17.957C12.9213 17.9462 12.8778 17.93 12.8752 17.8732C12.8727 17.8191 12.8701 17.7651 12.8701 17.711C12.8701 16.1971 12.8701 14.6831 12.8701 13.1665C12.8701 12.9151 12.8855 12.8934 13.1286 12.8204C13.1568 12.8123 13.1875 12.8123 13.2054 12.788C13.2566 12.7231 13.3282 12.715 13.3973 12.6934C13.4562 12.6745 13.533 12.6799 13.5714 12.6096H13.5688C13.62 12.5636 13.6968 12.6177 13.748 12.5636C13.7735 12.5528 13.7991 12.5366 13.8273 12.5285C14.3187 12.4068 14.8101 12.2906 15.2989 12.1635C15.8031 12.031 16.3047 11.8905 16.8063 11.7526C16.8549 11.7391 16.9061 11.7309 16.9573 11.7228C16.9368 11.7958 16.8856 11.8364 16.8268 11.8715C16.6988 11.9499 16.6476 12.0689 16.6502 12.2203C16.6527 12.2743 16.6502 12.3284 16.6502 12.3825C16.6502 13.8126 16.6502 15.2454 16.6502 16.6756C16.6502 16.7134 16.6476 16.754 16.6502 16.7918C16.6553 16.8675 16.6323 16.9486 16.6783 17.0189C16.7295 17.0946 16.8114 17.0649 16.8805 17.0784C16.9368 17.0892 16.9931 17.1081 17.0494 17.1244C17.0622 17.1352 17.0648 17.146 17.0597 17.1541C17.0546 17.1622 17.0494 17.1676 17.0443 17.1676C15.9489 17.4326 14.8561 17.7002 13.748 17.9002C13.6609 17.9165 13.5739 17.93 13.4869 17.93C13.4332 17.93 13.3769 17.9273 13.3231 17.9462C13.2924 17.9543 13.2617 17.9597 13.2335 17.9597C13.1696 17.957 13.103 17.9408 13.0416 17.9814C13.0134 17.9841 12.9853 17.9814 12.9648 17.957Z" fill="#57AB53"/>
<path d="M18.3264 3.87736C18.2394 3.86384 18.1959 3.78544 18.1345 3.73137C18.1166 3.71515 18.1063 3.6773 18.1038 3.64756C18.0987 3.59349 18.1012 3.53942 18.1012 3.48535C18.1012 2.61484 18.1012 1.74162 18.1012 0.871107C18.1012 0.825149 18.1012 0.77919 18.1012 0.733231C18.1012 0.684569 18.1217 0.64672 18.1575 0.616982C18.1959 0.58454 18.2343 0.546692 18.265 0.503437C18.2932 0.462885 18.3264 0.446664 18.3751 0.438554C18.5747 0.406112 18.7769 0.370967 18.9765 0.335822C18.9944 0.333119 19.0072 0.306084 19.0251 0.292567C19.1633 0.238498 19.3118 0.238498 19.4551 0.219573C20.036 0.143876 20.617 0.0844003 21.198 0.00599989C21.3387 -0.0129243 21.4488 0.0114068 21.5639 0.100621C22.1372 0.541285 22.7156 0.973839 23.2914 1.4091C23.9338 1.89302 24.5762 2.37964 25.216 2.86626C25.2647 2.90411 25.3593 2.92303 25.3338 3.00684C25.3133 3.07172 25.2314 3.03928 25.1751 3.04199C24.9703 3.0501 24.7656 3.0555 24.5634 3.08524C24.3254 3.20419 24.0618 3.18527 23.8135 3.19608C22.8999 3.23123 21.9913 3.35559 21.0853 3.47184C20.2433 3.57998 19.409 3.73948 18.5747 3.90709C18.4928 3.92331 18.4058 3.95035 18.3264 3.87736Z" fill="#51A650"/>
<path d="M18.3253 3.8773C18.5352 3.83945 18.7451 3.80971 18.9524 3.76646C19.4463 3.66373 19.9428 3.57181 20.4419 3.49882C20.6876 3.46367 20.9333 3.41501 21.1789 3.37986C21.3376 3.35553 21.4989 3.34201 21.6575 3.32309C22.021 3.27984 22.3844 3.23928 22.7478 3.19873C22.7708 3.19603 22.7913 3.19332 22.8143 3.19062C23.0984 3.1717 23.3825 3.15277 23.6691 3.13655C23.9327 3.12033 24.1938 3.10141 24.4574 3.08519C24.4932 3.08248 24.5291 3.08519 24.5674 3.08519C24.57 3.12303 24.5751 3.16359 24.6058 3.19062C24.6647 3.24739 24.7236 3.30687 24.785 3.36094C24.9385 3.49071 25.0972 3.61506 25.2508 3.74483C25.2994 3.78538 25.3557 3.82593 25.3813 3.90974C25.3199 3.92867 25.2661 3.953 25.2124 3.96111C25.046 3.98273 24.8797 3.99896 24.7108 4.02058C24.6084 4.0341 24.5086 4.05302 24.4088 4.07195C24.1426 4.11791 23.8764 4.15846 23.6103 4.20712C23.1726 4.28823 22.735 4.37744 22.2948 4.45043C21.9058 4.51532 21.5245 4.62346 21.1329 4.67482C20.9819 4.69375 20.8334 4.74241 20.6824 4.77485C20.3318 4.84784 19.9812 4.92084 19.6306 4.99653C19.5589 5.01275 19.4873 5.02897 19.4156 5.0452C19.0087 5.13711 18.6017 5.22633 18.1948 5.32095C17.8033 5.41557 17.4117 5.51019 17.0227 5.61563C16.3649 5.79405 15.7072 5.97248 15.052 6.16173C14.6374 6.28338 14.2305 6.43207 13.8159 6.55373C13.4985 6.64564 13.1889 6.76189 12.8741 6.85922C12.8254 6.87544 12.7768 6.89436 12.7307 6.91599C12.7 6.92951 12.7 6.96465 12.6924 6.99439C12.6796 6.98898 12.6642 6.98358 12.654 6.97547C12.4185 6.74567 12.1831 6.51317 11.9476 6.28068C11.8632 6.19687 11.771 6.11847 11.6866 6.03466C11.6379 5.986 11.6482 5.94274 11.7147 5.91301C11.8171 5.86975 11.9169 5.8265 12.0218 5.78865C12.5593 5.59129 13.0967 5.39124 13.6367 5.202C14.0539 5.05871 14.4736 4.92895 14.8933 4.80188C15.377 4.65319 15.8633 4.50991 16.3496 4.37474C16.6234 4.29634 16.9024 4.23145 17.1813 4.16657C17.5448 4.08276 17.9082 4.00166 18.2716 3.92056C18.2895 3.90704 18.3074 3.89082 18.3253 3.8773Z" fill="#030305"/>
<path d="M3.22872 9.87894C3.24664 9.91138 3.25687 9.95194 3.27991 9.97897C3.54095 10.2899 3.80456 10.6008 4.06561 10.9117C4.35992 11.2631 4.65168 11.6173 4.94856 11.9714C5.03046 12.0687 5.12003 12.1607 5.20193 12.2607C5.26335 12.3364 5.32989 12.3472 5.41691 12.3066C5.56279 12.2364 5.71379 12.1769 5.86223 12.1093C6.35873 11.8849 6.85523 11.6605 7.35173 11.4334C7.39012 11.4145 7.42595 11.3875 7.46434 11.3631C7.66652 11.3199 7.84567 11.2063 8.03506 11.1252C8.52132 10.9117 9.00503 10.69 9.48873 10.4683C9.88542 10.2872 10.2796 10.1033 10.6762 9.9222C11.1062 9.72484 11.5362 9.5329 11.9661 9.33555C12.4038 9.13549 12.8388 8.93273 13.2739 8.73267C13.2995 8.72186 13.3302 8.71916 13.3584 8.71375C13.343 8.75701 13.3225 8.79485 13.3635 8.84081C13.4582 8.94895 13.5452 9.0625 13.6399 9.17063C13.7448 9.28959 13.8549 9.40313 13.9624 9.51938C14.0289 9.59237 14.0903 9.66807 14.1287 9.75729C14.1159 9.79243 14.0929 9.80865 14.0647 9.82217C13.5861 10.0114 13.105 10.1979 12.6264 10.3926C12.1632 10.5818 11.7025 10.7792 11.2393 10.9684C10.9117 11.1036 10.5815 11.2307 10.254 11.3631C9.89822 11.5064 9.54504 11.6524 9.1893 11.7957C8.91545 11.9065 8.64161 12.0093 8.36777 12.1201C7.99923 12.2715 7.63325 12.4256 7.26471 12.577C7.07277 12.6554 6.88082 12.7257 6.68887 12.8041C6.34081 12.9447 5.99275 13.0852 5.64724 13.2258C5.55255 13.2637 5.45274 13.2934 5.35805 13.3367C5.27359 13.3745 5.21729 13.3421 5.16866 13.2745C4.95368 12.9825 4.7387 12.6905 4.52116 12.3986C4.30874 12.1147 4.09376 11.8308 3.88134 11.547C3.69451 11.2983 3.51024 11.0495 3.32597 10.8008C3.08284 10.4737 2.83715 10.1466 2.59402 9.81947C2.42255 9.58967 2.25107 9.35988 2.07704 9.13008C1.8595 8.84081 1.64196 8.54884 1.42442 8.25957C1.26063 8.04059 1.0994 7.82431 0.935601 7.60533C0.669436 7.24847 0.40327 6.88891 0.137104 6.53206C0.108952 6.49691 0.0833593 6.45906 0.0603257 6.41851C0.0372922 6.38066 -0.00877497 6.35093 0.00146217 6.29956C0.0116993 6.24549 0.0782407 6.26441 0.103834 6.22657C0.108952 6.22116 0.114071 6.21305 0.11663 6.20764C0.300899 6.24549 0.372559 6.42392 0.477489 6.54828C1.00214 7.17278 1.53447 7.78917 2.04633 8.42718C2.05913 8.4407 2.07192 8.45692 2.08472 8.47044C2.08984 8.47855 2.09752 8.48396 2.10264 8.49207C2.11543 8.50558 2.12823 8.5191 2.13847 8.53532C2.14358 8.54073 2.15126 8.54884 2.15638 8.55695C2.16918 8.57047 2.17941 8.58398 2.18965 8.5975C2.19989 8.61102 2.21013 8.62724 2.2178 8.64076C2.2306 8.66238 2.2434 8.68401 2.25875 8.70294C2.26899 8.71645 2.27923 8.72727 2.2869 8.74078C2.29714 8.7516 2.30738 8.76512 2.31762 8.77593C2.32273 8.78134 2.32785 8.78674 2.33297 8.79215C2.34321 8.80296 2.35345 8.81378 2.36368 8.82459L2.37904 8.84081C2.38928 8.85163 2.39951 8.86244 2.40975 8.87325L2.42511 8.88947C2.43534 8.90029 2.44558 8.9111 2.45582 8.92192C2.46094 8.92732 2.46605 8.93273 2.47117 8.93814C2.48397 8.94895 2.49421 8.95976 2.50444 8.97328C2.50956 8.97869 2.51468 8.9841 2.52236 8.99221C2.53515 9.00572 2.54539 9.01654 2.55563 9.03005C2.56587 9.04357 2.5761 9.05979 2.58378 9.07331C2.6017 9.10305 2.62217 9.13008 2.6452 9.15712C2.658 9.17063 2.66824 9.18145 2.67847 9.19497C2.68871 9.20848 2.70151 9.2193 2.71175 9.23281C2.71686 9.23822 2.72198 9.24633 2.7271 9.25174C2.73734 9.26255 2.75013 9.27607 2.76037 9.28688C2.76549 9.29229 2.77061 9.2977 2.77829 9.30581C2.79108 9.31662 2.80132 9.33014 2.81412 9.34366C2.81924 9.34906 2.82691 9.35717 2.83203 9.36258C2.84483 9.3761 2.85507 9.38962 2.8653 9.40313C2.8781 9.41935 2.88834 9.43287 2.89857 9.44909C2.93696 9.50857 2.98815 9.55993 3.03421 9.6113C3.04701 9.62482 3.05981 9.63833 3.07004 9.65185C3.08028 9.66537 3.09308 9.67889 3.10332 9.6897C3.10843 9.69511 3.11355 9.70322 3.11867 9.70862C3.12891 9.71944 3.13915 9.73295 3.14938 9.74377C3.1545 9.74918 3.15962 9.75458 3.16474 9.75999C3.17498 9.7708 3.18521 9.78162 3.19545 9.79513C3.20057 9.80054 3.20569 9.80595 3.21081 9.81406C3.22104 9.82758 3.22616 9.84109 3.23128 9.85731C3.23128 9.86272 3.23128 9.87083 3.22872 9.87894Z" fill="#030305"/>
<path d="M24.2197 14.8914C24.2632 14.8833 24.3067 14.8779 24.3477 14.8617C25.2664 14.5048 26.1724 14.1101 27.0759 13.7127C27.1219 13.6938 27.1629 13.6587 27.2064 13.6316C27.4239 13.5857 27.6133 13.4613 27.8129 13.3694C28.248 13.1666 28.678 12.9531 29.1079 12.7368C29.5379 12.5178 29.9602 12.2907 30.385 12.0636C30.9404 11.7662 31.4932 11.4661 32.046 11.1661C32.522 10.9092 32.9955 10.6497 33.4715 10.3929C33.5483 10.3523 33.62 10.2928 33.7121 10.2928C33.6993 10.3199 33.6814 10.3469 33.6788 10.3767C33.6737 10.4199 33.707 10.4469 33.7351 10.4686C33.9501 10.6416 34.1651 10.8146 34.3801 10.9876C34.4671 11.0579 34.5541 11.1282 34.6385 11.2012C34.6795 11.2391 34.6693 11.2823 34.6181 11.3066C33.9706 11.5932 33.3231 11.8771 32.6781 12.1663C32.3966 12.2934 32.1177 12.4286 31.8361 12.5583C31.5213 12.7016 31.204 12.8395 30.8866 12.9828C30.7791 13.0315 30.6691 13.0774 30.5642 13.1288C30.1982 13.3072 29.8092 13.4208 29.433 13.564C29.2077 13.6505 28.98 13.7316 28.7471 13.8046C28.5014 13.8803 28.2634 13.9804 28.0228 14.0642C27.6747 14.1858 27.3292 14.3048 26.9786 14.421C26.7355 14.5021 26.4898 14.5751 26.2441 14.6535C25.7271 14.8184 25.2127 14.9942 24.6881 15.1375C24.4628 15.1996 24.2427 15.2834 24.0175 15.3537C23.759 15.4321 23.498 15.5078 23.2369 15.5808C23.0962 15.6214 22.9554 15.6619 22.8147 15.6998C22.3847 15.8214 21.9547 15.9404 21.5248 16.0593C21.1716 16.1567 20.821 16.2621 20.4678 16.3513C20.2272 16.4135 19.9866 16.4811 19.7461 16.5378C19.5541 16.5838 19.3647 16.6514 19.1728 16.6757C18.9169 16.7109 18.6789 16.8136 18.4255 16.8487C18.3026 16.865 18.1875 16.9217 18.0672 16.9515C17.8906 16.9947 17.7114 17.0326 17.5349 17.0704C17.5195 17.0623 17.5144 17.0515 17.5195 17.0434C17.5246 17.0353 17.5297 17.0299 17.5349 17.0299C17.6884 16.9839 17.842 16.9298 17.9981 16.892C18.7735 16.7055 19.5413 16.4865 20.3066 16.2513C20.8952 16.0701 21.4864 15.889 22.0699 15.6917C22.6893 15.4808 23.306 15.2672 23.9126 15.0212C23.9382 14.9996 23.9766 15.0077 24.0022 14.9806C24.0175 14.9779 24.0303 14.9725 24.0457 14.9698C24.0636 14.959 24.0815 14.9482 24.0994 14.9374C24.1122 14.9401 24.1224 14.9374 24.1327 14.9293C24.1557 14.9077 24.1941 14.9158 24.2197 14.8914Z" fill="#030305"/>
<path d="M2.04877 8.47594C2.00014 8.42728 1.94896 8.38402 1.90545 8.33265C1.60857 7.9785 1.31426 7.62435 1.01994 7.27019C0.730739 6.92145 0.44154 6.5727 0.149781 6.22395C0.139544 6.21314 0.124188 6.20773 0.113951 6.19962C0.0960363 6.17529 0.0781213 6.15096 0.0627656 6.12663C0.0371727 6.08878 0.0448506 6.05364 0.0832399 6.03201C0.108833 6.01579 0.134426 6.00227 0.162578 5.99146C0.784484 5.74544 1.40383 5.49672 2.02574 5.25071C2.05901 5.23719 2.09484 5.23178 2.13067 5.22097C2.24839 5.1696 2.37636 5.14798 2.48641 5.08039L2.48385 5.08309C2.512 5.06147 2.55039 5.06687 2.57598 5.03984C2.60925 4.99658 2.67324 5.03984 2.70651 4.98847H2.70395C2.74234 4.95062 2.80376 4.99118 2.83703 4.93981L2.83447 4.94251C2.86262 4.92089 2.90101 4.92629 2.92661 4.89926C2.95988 4.856 3.02642 4.89926 3.05713 4.84789L3.05457 4.8506C3.09296 4.81275 3.15694 4.856 3.18765 4.79923H3.18509C3.23628 4.81004 3.28746 4.80193 3.33353 4.7776C3.36936 4.76138 3.40263 4.76409 3.44102 4.7749C3.60738 4.82086 3.63041 4.84519 3.63041 5.02902C3.63297 5.5535 3.63041 6.08067 3.63041 6.60514C3.63041 7.6622 3.63041 8.72195 3.63041 9.77901C3.63041 9.8493 3.63041 9.91688 3.62529 9.98717C3.62273 10.0331 3.56131 10.0629 3.52548 10.0358C3.47941 10.0007 3.4359 9.96014 3.3924 9.91688C3.34377 9.87092 3.29002 9.86281 3.2286 9.87633L3.23116 9.87363C3.22348 9.84929 3.20557 9.83578 3.18509 9.82496L3.18765 9.82767C3.17742 9.80604 3.16206 9.78982 3.14159 9.77901L3.14414 9.78171C3.13391 9.76008 3.11855 9.74656 3.10064 9.73305C3.08784 9.71412 3.07248 9.70061 3.05713 9.68438C2.99827 9.57895 2.90101 9.50596 2.83191 9.40593L2.83447 9.40863C2.82423 9.387 2.80888 9.37078 2.7884 9.35997L2.79096 9.36267C2.78073 9.34375 2.76537 9.32753 2.7449 9.31401L2.74746 9.31671C2.73466 9.29779 2.7193 9.28157 2.70395 9.26805C2.69115 9.25183 2.6758 9.23561 2.663 9.21939V9.21669C2.61949 9.15451 2.57598 9.09233 2.52224 9.03555L2.5248 9.03826C2.51456 9.01663 2.4992 9.00041 2.47873 8.9896L2.48129 8.9923C2.47105 8.97067 2.4557 8.95445 2.43522 8.94364L2.43778 8.94634C2.42754 8.92742 2.40963 8.9112 2.39427 8.89768C2.38148 8.87875 2.36612 8.86524 2.35077 8.84902C2.33541 8.8355 2.32261 8.81928 2.30982 8.80035L2.30726 8.79765C2.2919 8.78684 2.27911 8.77061 2.26887 8.75439L2.26631 8.74899C2.23304 8.71114 2.21768 8.65437 2.17673 8.61922L2.17929 8.62192C2.16906 8.6003 2.1537 8.58408 2.13323 8.57326L2.13579 8.57597C2.12555 8.55434 2.11019 8.54082 2.09228 8.5273L2.09484 8.53001C2.08204 8.50568 2.06413 8.49216 2.04877 8.47594Z" fill="#45A54A"/>
<path d="M13.2219 17.9084C13.25 17.9057 13.2808 17.903 13.3089 17.9003C13.3499 17.8705 13.4062 17.9003 13.4446 17.8624C13.6007 17.8787 13.7491 17.83 13.9001 17.8057C14.1867 17.7597 14.4734 17.6975 14.7575 17.6381C15.1644 17.5542 15.5713 17.465 15.9757 17.3785C16.2598 17.3163 16.5438 17.2515 16.8279 17.1866C16.8996 17.1704 16.9712 17.1541 17.0429 17.1622C16.9226 17.2623 16.7742 17.2704 16.6334 17.3001C16.5541 17.3163 16.4747 17.3272 16.398 17.3515C16.0985 17.4461 15.7863 17.4975 15.4843 17.5813C14.8701 17.7543 14.2482 17.876 13.6314 18.0328C13.1835 18.1463 12.7356 18.249 12.2878 18.3518C11.7682 18.4707 11.2461 18.5843 10.7266 18.7059C10.3913 18.7843 10.0586 18.8708 9.72591 18.9573C9.43927 19.033 9.43672 19.0276 9.25245 18.7789C9.05538 18.5113 8.85064 18.249 8.65101 17.9841C8.39765 17.6462 8.14428 17.3082 7.88835 16.9676C7.68872 16.7027 7.48654 16.4377 7.28692 16.1728C7.09497 15.9186 6.90302 15.6672 6.7162 15.4104C6.50633 15.1238 6.30159 14.8319 6.09685 14.5426C6.05078 14.475 5.99448 14.4128 5.97656 14.3263C6.04054 14.2479 6.13524 14.2587 6.21458 14.2452C6.32974 14.2263 6.44747 14.2371 6.5652 14.2371C6.62918 14.2371 6.65733 14.202 6.66757 14.1398C6.80577 14.2993 6.94397 14.4561 7.07961 14.6156C7.25365 14.8237 7.42512 15.0346 7.59915 15.2428C7.88323 15.5861 8.16731 15.9268 8.45139 16.2701C8.56656 16.4107 8.68173 16.5486 8.79945 16.6891C9.08609 17.0298 9.37529 17.3677 9.66193 17.7083C9.80269 17.876 9.94345 18.0436 10.074 18.2193C10.1661 18.3409 10.2659 18.3896 10.4144 18.3599C10.5935 18.3247 10.7752 18.3085 10.9569 18.2815C11.0798 18.2653 11.2026 18.249 11.3255 18.2274C11.6838 18.1625 12.0497 18.1355 12.408 18.0544C12.5514 18.0219 12.6972 18.0138 12.8431 17.9949C12.8866 17.9895 12.9301 17.9895 12.966 17.9544C12.9941 17.9517 13.0197 17.9517 13.0479 17.9489C13.0939 17.8895 13.1707 17.9598 13.2219 17.9084Z" fill="#030305"/>
<path d="M19.5209 8.28394C19.6668 8.40829 19.8178 8.53265 19.9611 8.65972C20.4397 9.08686 20.9157 9.51401 21.3943 9.94116C21.4327 9.9763 21.4711 10.0114 21.5094 10.0493C21.5939 10.1358 21.5913 10.1655 21.4838 10.2034C21.2382 10.2953 20.9899 10.3845 20.7442 10.4737C20.7596 10.4305 20.7775 10.3926 20.7289 10.3521C20.2554 9.96819 19.7819 9.5843 19.311 9.20041C19.1677 9.08416 19.0244 8.96521 18.8811 8.84625C18.8529 8.82192 18.8273 8.79489 18.8043 8.76245C18.7838 8.73271 18.7889 8.70297 18.8196 8.68405C18.8913 8.6435 18.963 8.60835 19.0346 8.5705C19.1677 8.50562 19.2982 8.44074 19.4313 8.37585C19.4723 8.35963 19.5004 8.32719 19.5209 8.28394Z" fill="#030305"/>
<path d="M17.5326 17.0298C17.5326 17.0433 17.5326 17.0568 17.5326 17.0703C17.3764 17.1298 17.2152 17.1704 17.0489 17.1623C17.0463 17.1487 17.0489 17.1325 17.054 17.119C17.1717 17.0947 17.2894 17.0676 17.4072 17.0433C17.4455 17.0352 17.4891 17.0352 17.5326 17.0298Z" fill="#030305"/>
<path d="M2.48953 5.08026C2.39228 5.1884 2.26431 5.21003 2.13379 5.22084C2.23872 5.13974 2.36157 5.10459 2.48953 5.08026Z" fill="#54A651"/>
<path d="M13.7475 12.561C13.7014 12.634 13.6323 12.6069 13.5684 12.6069C13.6221 12.5637 13.6861 12.5637 13.7475 12.561Z" fill="#62AF5C"/>
<path d="M3.1907 4.79919C3.16255 4.86407 3.1088 4.85326 3.05762 4.85055C3.09345 4.80459 3.13951 4.79378 3.1907 4.79919Z" fill="#54A651"/>
<path d="M3.06021 4.8478C3.03206 4.90998 2.98087 4.89917 2.92969 4.89917C2.96552 4.85591 3.00903 4.8451 3.06021 4.8478Z" fill="#54A651"/>
<path d="M2.84011 4.93986C2.8094 5.00204 2.75822 4.99122 2.70703 4.98852C2.74286 4.94527 2.78893 4.93716 2.84011 4.93986Z" fill="#54A651"/>
<path d="M2.70963 4.98838C2.68147 5.04785 2.62773 5.03974 2.5791 5.03974C2.61237 4.99379 2.65844 4.98568 2.70963 4.98838Z" fill="#54A651"/>
<path d="M20.7419 10.4738C20.7086 10.5198 20.6625 10.5279 20.6113 10.5171C20.6446 10.4657 20.6907 10.4684 20.7419 10.4738Z" fill="#C5C3C3"/>
<path d="M23.7315 5.30752C23.7059 5.3724 23.6521 5.36159 23.6035 5.36429C23.6342 5.31833 23.6803 5.30482 23.7315 5.30752Z" fill="#53AA51"/>
<path d="M2.93003 4.89917C2.90955 4.93702 2.87628 4.94513 2.83789 4.94243C2.86092 4.90728 2.89419 4.89917 2.93003 4.89917Z" fill="#54A651"/>
<path d="M2.57846 5.03982C2.55799 5.07767 2.52472 5.08578 2.48633 5.08308C2.5068 5.04793 2.54007 5.03712 2.57846 5.03982Z" fill="#54A651"/>
<path d="M23.9109 5.22369C23.8904 5.26154 23.8571 5.26965 23.8213 5.26695C23.8418 5.23451 23.8725 5.22369 23.9109 5.22369Z" fill="#53AA51"/>
<path d="M23.8213 5.26681C23.8008 5.31007 23.7675 5.31548 23.7266 5.31007C23.7496 5.27492 23.7829 5.26411 23.8213 5.26681Z" fill="#53AA51"/>
<path d="M19.4727 8.23804C19.498 8.24072 19.5133 8.25412 19.5158 8.28094C19.4904 8.28094 19.4752 8.26485 19.4727 8.23804Z" fill="#C5C3C3"/>
<path d="M19.4258 8.19745C19.4512 8.20013 19.4664 8.21353 19.4715 8.23767C19.4435 8.23767 19.4309 8.22158 19.4258 8.19745Z" fill="#C5C3C3"/>
<path fill-rule="evenodd" clip-rule="evenodd" d="M135.047 10.4488L135.047 10.4488C135.147 10.5117 135.245 10.5734 135.336 10.6469C136.117 11.2795 136.526 12.1149 136.565 13.153C136.593 13.8775 136.465 14.5723 136.193 15.2347C135.897 15.9592 135.441 16.5567 134.847 17.0379C134.397 17.4028 133.898 17.6813 133.365 17.8868C132.623 18.1733 131.861 18.3355 131.072 18.3923C130.722 18.4166 130.371 18.4275 130.018 18.4275H123.333C123.309 18.4275 123.286 18.4276 123.262 18.4278H123.262C123.19 18.4283 123.117 18.4288 123.046 18.4247C122.975 18.4193 122.9 18.4112 122.829 18.3923C122.593 18.3301 122.514 18.2166 122.506 17.9652C122.502 17.7902 122.53 17.6175 122.558 17.447L122.568 17.3893C122.621 17.054 122.677 16.7197 122.733 16.3852L122.733 16.3852C122.771 16.156 122.809 15.9267 122.847 15.697C122.889 15.4455 122.931 15.1941 122.972 14.9427C123.014 14.6913 123.055 14.4399 123.098 14.1884L123.098 14.1859L123.098 14.1857C123.221 13.4323 123.343 12.679 123.466 11.9229L123.681 10.6197L123.896 9.31678C123.96 8.92749 124.023 8.53886 124.087 8.15024L124.087 8.14998C124.15 7.76144 124.213 7.37291 124.277 6.9837L124.28 6.97044L124.28 6.96972C124.381 6.34988 124.483 5.73002 124.584 5.10749L124.585 5.10624C124.674 4.55786 124.764 4.00947 124.851 3.46109C124.871 3.33673 124.904 3.22048 124.953 3.10693C125.02 2.95013 125.13 2.8447 125.283 2.78792C125.388 2.75007 125.493 2.72034 125.606 2.72304C125.655 2.72484 125.703 2.72424 125.752 2.72364C125.776 2.72334 125.801 2.72304 125.826 2.72304C126.335 2.72304 126.844 2.72321 127.354 2.72338C128.882 2.72389 130.41 2.72439 131.94 2.72034C132.485 2.72034 133.025 2.75819 133.56 2.85551C134.251 2.98257 134.911 3.21237 135.495 3.63951C136.408 4.30727 136.874 5.23456 136.905 6.40786C136.92 7.0675 136.81 7.70282 136.57 8.3111C136.237 9.14647 135.71 9.798 134.944 10.2251C134.938 10.23 134.931 10.2344 134.924 10.2389C134.897 10.2566 134.87 10.2744 134.85 10.3198C134.916 10.3658 134.982 10.4075 135.047 10.4488ZM130.081 6.09971H131.663C131.973 6.09971 132.277 6.14027 132.569 6.25652C132.868 6.37547 133.104 6.57012 133.234 6.88912C133.286 7.01348 133.309 7.14055 133.316 7.27031C133.357 8.02728 133.014 8.74099 132.323 9.07893C131.998 9.23843 131.655 9.31142 131.302 9.32224C131.007 9.33035 130.71 9.32934 130.412 9.32832C130.313 9.32798 130.214 9.32765 130.115 9.32765H127.896H127.719C127.606 9.32224 127.591 9.30602 127.606 9.18977C127.616 9.1014 127.63 9.01459 127.644 8.92815L127.658 8.84643C127.788 7.99214 127.919 7.13784 128.044 6.28355C128.072 6.10237 128.092 6.10238 128.25 6.10242L128.257 6.10242H129.047C129.393 6.09971 129.736 6.09971 130.081 6.09971ZM127.013 15.0426H128.946C129.583 15.0399 130.22 15.0399 130.852 15.0426C131.142 15.0426 131.423 14.9939 131.697 14.9047C132.106 14.7695 132.426 14.5154 132.618 14.1018C132.733 13.8476 132.797 13.5746 132.802 13.2961C132.81 12.8203 132.626 12.4608 132.199 12.2607C132.037 12.185 131.868 12.1417 131.694 12.1093C131.441 12.0633 131.185 12.0579 130.929 12.0579H127.415C127.401 12.0579 127.386 12.0576 127.372 12.0573C127.343 12.0567 127.314 12.0561 127.285 12.0579C127.193 12.0606 127.177 12.0769 127.159 12.1796C127.148 12.2451 127.14 12.3096 127.132 12.3743C127.127 12.4164 127.122 12.4587 127.116 12.5013C127.054 12.9014 126.994 13.3021 126.933 13.7029C126.872 14.1037 126.811 14.5045 126.75 14.9047C126.732 15.0182 126.75 15.0372 126.86 15.0426H127.013Z" fill="#141A28"/>
<path fill-rule="evenodd" clip-rule="evenodd" d="M88.1926 2.75998C87.9579 2.76042 87.7231 2.76086 87.4883 2.76086V2.76356H84.7397C84.7104 2.76434 84.6812 2.76467 84.6519 2.765C84.5788 2.76583 84.5057 2.76665 84.4325 2.77438C84.0563 2.81223 83.8823 2.97984 83.8004 3.36644C83.7927 3.39617 83.785 3.42591 83.7799 3.45565C83.7006 3.93687 83.6238 4.41538 83.547 4.8966C83.5074 5.14801 83.4683 5.4001 83.4293 5.6522C83.3903 5.9043 83.3512 6.1564 83.3116 6.40783C83.2489 6.80118 83.1855 7.19386 83.1222 7.58654C83.0588 7.97922 82.9955 8.3719 82.9328 8.76525C82.8893 9.03559 82.8471 9.30661 82.8048 9.57763C82.7626 9.84866 82.7204 10.1197 82.6769 10.39C82.6359 10.6496 82.5943 10.9091 82.5527 11.1686C82.5112 11.4282 82.4696 11.6877 82.4286 11.9472C82.389 12.1987 82.3493 12.4508 82.3096 12.7029C82.2699 12.955 82.2303 13.2071 82.1906 13.4585C82.1807 13.5212 82.1708 13.584 82.1609 13.6469C82.0914 14.0875 82.0217 14.5296 81.95 14.9697C81.925 15.1231 81.8997 15.2766 81.8745 15.4301C81.8196 15.7635 81.7646 16.0972 81.712 16.4323C81.643 16.8723 81.574 17.315 81.505 17.7577L81.5047 17.7597C81.4868 17.8759 81.4791 17.9895 81.5047 18.1057C81.5354 18.2463 81.6148 18.3409 81.7427 18.3869C81.84 18.422 81.9398 18.4382 82.0447 18.4382H84.5503C84.6629 18.4382 84.7704 18.4193 84.8753 18.3869C85.034 18.3409 85.144 18.2328 85.2182 18.0814C85.272 17.9705 85.3027 17.8516 85.3206 17.7272C85.3411 17.5853 85.3622 17.444 85.3833 17.3028C85.4044 17.1615 85.4255 17.0203 85.446 16.8783L85.6994 15.1103C85.724 14.9399 85.7475 14.7701 85.7708 14.6007C85.7961 14.418 85.8213 14.2356 85.8478 14.0532C85.8555 13.9992 85.8657 13.9451 85.8785 13.8937C85.899 13.8072 85.9067 13.8018 85.9988 13.7964H86.0858H87.8006C87.8098 13.7964 87.8194 13.7967 87.8291 13.797C87.8487 13.7976 87.8687 13.7982 87.8876 13.7964C87.9541 13.7937 87.9976 13.8234 88.0309 13.8829C88.0654 13.9464 88.1006 14.01 88.1358 14.0735C88.171 14.137 88.2062 14.2006 88.2408 14.2641L90.0143 17.5245C90.0988 17.6786 90.1832 17.8327 90.2831 17.9759C90.4392 18.2003 90.6414 18.3571 90.9126 18.4031C91.0304 18.422 91.1455 18.4328 91.2633 18.4328H94.035C94.1015 18.4328 94.168 18.4328 94.232 18.422C94.4624 18.3815 94.6082 18.2166 94.6287 17.9922C94.6415 17.8543 94.6006 17.7326 94.534 17.6164C94.3778 17.3446 94.2216 17.0734 94.0654 16.8022C93.9094 16.5314 93.7534 16.2605 93.5973 15.9889C93.2092 15.318 92.8225 14.6457 92.4361 13.9741C92.2899 13.7201 92.1439 13.4662 91.9978 13.2124C91.9696 13.1665 91.944 13.1205 91.921 13.0719C91.9005 13.0286 91.9159 12.9962 91.9517 12.9745C91.971 12.9623 91.9917 12.9516 92.0117 12.9413C92.0182 12.938 92.0247 12.9346 92.031 12.9313C92.4303 12.7123 92.8091 12.4636 93.152 12.1581C94.0478 11.3633 94.6236 10.3657 94.9128 9.17347C95.0024 8.79769 95.0638 8.4165 95.092 8.02991C95.1431 7.33782 95.115 6.65385 94.9282 5.98339C94.7285 5.26156 94.3753 4.63706 93.8481 4.12881C93.2493 3.55027 92.5352 3.20963 91.7572 2.99876C91.1634 2.83926 90.5595 2.76897 89.9503 2.76356C89.3654 2.75777 88.7792 2.75887 88.1926 2.75998ZM86.6184 10.5631H87.7138C87.8139 10.5631 87.9142 10.5636 88.0146 10.564C88.2659 10.5651 88.5177 10.5662 88.7682 10.5604C89.2775 10.5496 89.7715 10.4496 90.2347 10.2144C91.1074 9.76832 91.6091 8.85996 91.5374 7.83805C91.5067 7.36765 91.3301 6.97024 90.9897 6.66475C90.7696 6.46739 90.5111 6.33763 90.2322 6.25923C89.9199 6.17001 89.6026 6.12406 89.2776 6.12406C88.9021 6.12586 88.5255 6.12526 88.1493 6.12466C87.9613 6.12436 87.7734 6.12406 87.5859 6.12406C87.5347 6.12406 87.4835 6.12375 87.4323 6.12345C87.3299 6.12285 87.2276 6.12225 87.1252 6.12406C87.01 6.12676 86.9998 6.13757 86.9819 6.25382C86.9569 6.41234 86.934 6.572 86.9112 6.73132C86.899 6.81654 86.8869 6.90166 86.8744 6.98646L86.6057 8.81941C86.5903 8.92297 86.5746 9.02652 86.5589 9.13017C86.5251 9.35391 86.4913 9.57806 86.4598 9.80347C86.4291 10.025 86.4009 10.2466 86.3728 10.4681L86.3728 10.4685C86.3651 10.528 86.3881 10.5577 86.4419 10.5604C86.5007 10.5631 86.5596 10.5631 86.6184 10.5631Z" fill="#141A28"/>
<path fill-rule="evenodd" clip-rule="evenodd" d="M160.723 2.71222C160.044 2.49865 159.348 2.40403 158.642 2.39592C158.217 2.38511 157.795 2.44188 157.375 2.51217C156.822 2.59868 156.285 2.75548 155.763 2.96094C155.036 3.24751 154.36 3.6314 153.756 4.14506C152.72 5.02639 152.039 6.14021 151.77 7.52439C151.733 7.72309 151.703 7.92359 151.675 8.12295C151.668 8.16771 151.662 8.21241 151.655 8.25702C151.615 8.52467 151.574 8.79163 151.533 9.0586C151.493 9.32557 151.452 9.59254 151.412 9.86018C151.372 10.1238 151.334 10.3874 151.295 10.6509C151.257 10.9145 151.219 11.1781 151.179 11.4417C151.148 11.6425 151.117 11.8433 151.086 12.0441C151.023 12.4462 150.961 12.8483 150.903 13.2503C150.834 13.7315 150.785 14.2155 150.844 14.7048C150.89 15.0833 150.969 15.4509 151.11 15.8024C151.363 16.4269 151.752 16.9405 152.251 17.3677C152.748 17.7894 153.306 18.0949 153.902 18.3193C154.716 18.6275 155.56 18.7708 156.423 18.7897C157.099 18.8059 157.767 18.7194 158.429 18.5734C159.1 18.4247 159.742 18.2004 160.362 17.8922C160.976 17.5867 161.542 17.2028 162.041 16.7162C162.967 15.8132 163.51 14.7048 163.65 13.3801C163.671 13.1881 163.691 12.9962 163.711 12.8043C163.73 12.6123 163.75 12.4204 163.771 12.2284C163.798 11.9647 163.827 11.7003 163.855 11.4356C163.885 11.1549 163.916 10.8739 163.945 10.5928C163.975 10.2967 164.005 10.0007 164.036 9.70457C164.066 9.40859 164.096 9.11262 164.126 8.81664C164.136 8.7168 164.145 8.61719 164.154 8.51775C164.176 8.27791 164.198 8.03903 164.229 7.80014C164.308 7.17564 164.27 6.56195 164.114 5.95908C163.888 5.08046 163.415 4.36674 162.747 3.79631C162.146 3.28265 161.46 2.94202 160.723 2.71222ZM156.275 15.4024C156.513 15.451 156.753 15.4672 156.997 15.4618H156.997C157.048 15.4618 157.099 15.4618 157.15 15.4645C157.769 15.4429 158.353 15.2888 158.875 14.9211C159.382 14.5616 159.72 14.0723 159.871 13.4423C159.928 13.2054 159.955 12.9636 159.981 12.7219C159.989 12.6493 159.997 12.5767 160.006 12.5042C160.047 12.1596 160.089 11.8142 160.132 11.4688C160.174 11.1235 160.216 10.7781 160.257 10.4334C160.344 9.69535 160.429 8.96001 160.513 8.22197C160.541 7.96784 160.557 7.71371 160.526 7.45689C160.459 6.90268 160.214 6.46472 159.776 6.15111C159.512 5.96187 159.215 5.84833 158.903 5.78615C158.586 5.72397 158.263 5.71586 157.941 5.73478C157.511 5.75911 157.102 5.86725 156.718 6.07271C155.96 6.47553 155.499 7.12166 155.351 8.00298C155.286 8.38751 155.235 8.77584 155.183 9.16363C155.159 9.34293 155.135 9.52211 155.11 9.70076C155.092 9.83052 155.076 9.96096 155.059 10.0914C155.043 10.2218 155.026 10.3523 155.008 10.4821L154.801 11.95C154.785 12.0636 154.77 12.1771 154.755 12.2905C154.731 12.4687 154.707 12.6465 154.68 12.8233C154.639 13.0909 154.609 13.3585 154.627 13.6316C154.655 14.0614 154.796 14.4453 155.08 14.7616C155.407 15.1239 155.819 15.3104 156.275 15.4024Z" fill="#141A28"/>
<path fill-rule="evenodd" clip-rule="evenodd" d="M77.3224 2.7095C76.6442 2.49593 75.9481 2.40131 75.2417 2.3932C74.8066 2.38779 74.3767 2.44186 73.9518 2.50944C73.1226 2.65002 72.3292 2.92037 71.5768 3.31778C70.9114 3.67193 70.3074 4.118 69.7878 4.68573C69.1762 5.35619 68.7411 6.13208 68.4877 7.02422C68.3956 7.34594 68.3444 7.67306 68.2932 8.00017C68.2369 8.35701 68.1852 8.71384 68.1334 9.07068C68.1075 9.24913 68.0817 9.42758 68.0552 9.60603L67.679 12.0797C67.6584 12.2148 67.6394 12.3503 67.6204 12.4858C67.5923 12.6868 67.5642 12.8879 67.5305 13.0881C67.441 13.6099 67.3949 14.1289 67.441 14.6588C67.4742 15.0238 67.5536 15.3752 67.679 15.7159C67.9042 16.3268 68.2651 16.8351 68.7334 17.2649C69.2555 17.7434 69.8544 18.0787 70.5019 18.322C71.3516 18.641 72.232 18.7816 73.1328 18.7951C73.5602 18.8005 73.9825 18.7545 74.4022 18.6924C75.2929 18.5626 76.1477 18.3004 76.9615 17.8921C77.7088 17.5164 78.3819 17.0324 78.9501 16.389C79.3749 15.9105 79.7051 15.3644 79.9329 14.7534C80.1197 14.2533 80.2297 13.7342 80.2656 13.1962C80.2758 13.0556 80.2886 12.9178 80.304 12.7799L80.519 10.7983C80.5599 10.4225 80.6008 10.044 80.6392 9.66821C80.651 9.55905 80.6627 9.44989 80.6745 9.34071C80.7348 8.78206 80.7952 8.2231 80.8465 7.66224C80.89 7.18103 80.8721 6.70251 80.7774 6.22941C80.5752 5.22642 80.0813 4.41809 79.3289 3.78007C78.7326 3.27182 78.0518 2.93929 77.3224 2.7095ZM72.4034 15.2616C72.7847 15.4211 73.1839 15.4644 73.5883 15.4644C74.1539 15.4644 74.6965 15.3644 75.2058 15.0832C75.9352 14.6831 76.3856 14.0559 76.5187 13.1962C76.5729 12.8468 76.6116 12.4948 76.6503 12.1429C76.6682 11.9803 76.6861 11.8176 76.7055 11.6552C76.7477 11.2943 76.7906 10.9334 76.8335 10.5725C76.8763 10.2116 76.9192 9.85066 76.9614 9.48975C76.9778 9.35459 76.9934 9.21942 77.0089 9.08426C77.0323 8.88149 77.0556 8.67872 77.0817 8.47596C77.1227 8.15965 77.1611 7.84605 77.1329 7.52704C77.0843 7.00257 76.8821 6.56191 76.4854 6.23208C76.1962 5.99148 75.8661 5.8536 75.5078 5.78061C75.1955 5.71843 74.8807 5.71032 74.566 5.72654C74.0976 5.74816 73.6549 5.87252 73.2402 6.10502C72.7821 6.36455 72.4264 6.73222 72.1884 7.22425C72.0348 7.54596 71.9478 7.8866 71.9043 8.24346C71.8642 8.58016 71.8178 8.9152 71.7713 9.25118C71.7585 9.34413 71.7456 9.43715 71.7328 9.5303C71.6932 9.8209 71.6529 10.1115 71.6126 10.4021C71.5722 10.6927 71.5319 10.9834 71.4923 11.274C71.4619 11.4976 71.4323 11.7207 71.4027 11.9435C71.355 12.3029 71.3074 12.6617 71.2568 13.0205C71.2235 13.253 71.2133 13.4828 71.2363 13.7153C71.2568 13.9234 71.3029 14.1262 71.3899 14.3181C71.6023 14.7831 71.958 15.0751 72.4034 15.2616Z" fill="#141A28"/>
<path fill-rule="evenodd" clip-rule="evenodd" d="M59.6453 2.75996C59.4106 2.7604 59.1758 2.76084 58.9411 2.76084V2.75543H56.1694C56.0619 2.75543 55.9493 2.75543 55.8418 2.77165C55.5091 2.82032 55.335 2.99334 55.2685 3.34479C55.2378 3.51232 55.2122 3.67986 55.1866 3.8474L55.1866 3.84763C55.1431 4.1342 55.1002 4.42076 55.0573 4.70733C55.0145 4.9939 54.9716 5.28046 54.9281 5.56703C54.863 6.00329 54.796 6.43747 54.7287 6.87321C54.7192 6.93432 54.7098 6.99546 54.7003 7.05664L54.4009 9.02746C54.3254 9.52083 54.2523 10.0129 54.1791 10.5055C54.1457 10.7309 54.1122 10.9564 54.0784 11.1821C53.9965 11.7336 53.9146 12.2851 53.8327 12.8339C53.7918 13.1056 53.7508 13.3767 53.7099 13.6477C53.6689 13.9187 53.628 14.1897 53.587 14.4614C53.5499 14.7061 53.5141 14.9507 53.4783 15.1954C53.4424 15.4401 53.4066 15.6847 53.3695 15.9294C53.3326 16.1738 53.295 16.4182 53.2573 16.6626C53.2008 17.0292 53.1443 17.3958 53.0905 17.7623C53.0777 17.8543 53.0752 17.9489 53.0854 18.0408C53.1085 18.2165 53.198 18.3409 53.3669 18.3896C53.4591 18.4139 53.5512 18.4328 53.6485 18.4328H56.154C56.2564 18.4328 56.3562 18.4112 56.456 18.3814C56.63 18.3301 56.7478 18.2138 56.8169 18.0381C56.8604 17.93 56.8885 17.8191 56.9039 17.7029C56.9781 17.127 57.0549 16.5512 57.1342 15.9781C57.1922 15.5546 57.2525 15.1311 57.3128 14.7076C57.3429 14.4958 57.3731 14.2839 57.4029 14.0721C57.4252 13.9155 57.4233 13.8449 57.4575 13.8132C57.49 13.7831 57.5552 13.7883 57.7049 13.7883C57.9977 13.7872 58.2909 13.787 58.5842 13.7867C59.0241 13.7864 59.4642 13.7861 59.9034 13.7829C60.6609 13.7774 61.4082 13.6828 62.1427 13.4855C62.9182 13.28 63.645 12.9556 64.3002 12.4717C65.3086 11.7255 65.9817 10.7198 66.3476 9.48165C66.4986 8.97069 66.5729 8.44081 66.6061 7.90823C66.6471 7.22425 66.5882 6.54839 66.386 5.89145C66.1992 5.27776 65.8946 4.73707 65.4647 4.27748C64.8428 3.61243 64.075 3.23124 63.2304 3.00145C62.6316 2.83924 62.0199 2.76895 61.4031 2.76354C60.8182 2.75775 60.2319 2.75885 59.6453 2.75996ZM58.127 10.5631H59.248H59.9953C60.2435 10.5631 60.4918 10.555 60.74 10.5225C61.2109 10.4603 61.6537 10.3062 62.0529 10.0305C62.8617 9.46817 63.1918 8.42734 62.9871 7.51357C62.9205 7.22159 62.7823 6.97017 62.5801 6.7566C62.3396 6.50518 62.0478 6.35108 61.7253 6.25646C61.4131 6.16454 61.0958 6.12128 60.7707 6.12128H58.6824H58.6388L58.6386 6.1213C58.4955 6.12669 58.4929 6.12679 58.4725 6.27268C58.4008 6.76741 58.3292 7.26485 58.2601 7.76229C58.2178 8.07181 58.1763 8.382 58.1347 8.6922C58.0931 9.00245 58.0515 9.3127 58.0093 9.62227C57.9734 9.8845 57.9376 10.144 57.9018 10.4036C57.9012 10.4106 57.9004 10.4177 57.8997 10.425C57.8972 10.4484 57.8947 10.4727 57.8966 10.4955C57.8992 10.5279 57.9197 10.555 57.9504 10.5577C58.0093 10.5631 58.0681 10.5631 58.127 10.5631Z" fill="#141A28"/>
<path d="M23.9978 14.9804C23.9747 15.0129 23.9466 15.0237 23.9082 15.021C23.9312 14.9858 23.9619 14.9804 23.9978 14.9804Z" fill="#53AA51"/>
<path d="M24.2195 14.8913C24.1964 14.9238 24.1657 14.9346 24.1299 14.9319C24.1504 14.894 24.1836 14.8859 24.2195 14.8913Z" fill="#53AA51"/>
<path d="M24.0933 14.9373C24.0807 14.9588 24.0654 14.9695 24.04 14.9695C24.0603 14.9588 24.0756 14.948 24.0933 14.9373Z" fill="#53AA51"/>
<path d="M13.2225 17.9083C13.1713 17.9623 13.1073 17.9569 13.0459 17.9515C13.051 17.8866 13.0792 17.8569 13.1431 17.8866C13.1662 17.9001 13.1943 17.9028 13.2225 17.9083Z" fill="#62AF5C"/>
<path d="M13.4452 17.8626C13.4068 17.9058 13.3608 17.9058 13.3096 17.9004C13.3454 17.8518 13.3966 17.8599 13.4452 17.8626Z" fill="#62AF5C"/>
<path d="M2.83789 9.40857C2.94026 9.47616 3.04007 9.54645 3.06311 9.68703C2.96585 9.61133 2.87628 9.53023 2.83789 9.40857Z" fill="#54A651"/>
<path d="M2.52734 9.03815C2.60668 9.07059 2.66043 9.12466 2.6681 9.21928C2.59644 9.17602 2.54526 9.12195 2.52734 9.03815Z" fill="#54A651"/>
<path d="M2.17676 8.61908C2.23818 8.638 2.26633 8.68396 2.27401 8.74884C2.21515 8.72451 2.18444 8.68126 2.17676 8.61908Z" fill="#54A651"/>
<path d="M3.05957 9.68445C3.0748 9.70053 3.08749 9.71662 3.10272 9.7327C3.07988 9.72466 3.06465 9.70858 3.05957 9.68445Z" fill="#54A651"/>
<path d="M3.10254 9.73035C3.12538 9.73839 3.14061 9.75448 3.14569 9.77861C3.12284 9.77324 3.10762 9.75716 3.10254 9.73035Z" fill="#54A651"/>
<path d="M3.14453 9.77905C3.16991 9.7871 3.1826 9.80319 3.19022 9.82732C3.16484 9.82195 3.14961 9.80587 3.14453 9.77905Z" fill="#54A651"/>
<path d="M3.1875 9.8277C3.21288 9.83306 3.22811 9.85183 3.23319 9.87596C3.20781 9.8706 3.19258 9.85183 3.1875 9.8277Z" fill="#54A651"/>
<path d="M2.79395 9.3598C2.81679 9.36785 2.83202 9.38393 2.83963 9.40806C2.81425 9.4027 2.79902 9.38661 2.79395 9.3598Z" fill="#54A651"/>
<path d="M2.75 9.31384C2.77284 9.32189 2.78807 9.33797 2.79569 9.3621C2.77031 9.35406 2.75761 9.33797 2.75 9.31384Z" fill="#54A651"/>
<path d="M2.70898 9.2655C2.72421 9.28159 2.73691 9.29768 2.75213 9.31377C2.72675 9.3084 2.71406 9.29232 2.70898 9.2655Z" fill="#54A651"/>
<path d="M2.66797 9.21948C2.68066 9.23557 2.69589 9.25166 2.70858 9.26775C2.68574 9.2597 2.67051 9.24361 2.66797 9.21948Z" fill="#54A651"/>
<path d="M2.13379 8.57037C2.15663 8.57842 2.17186 8.5945 2.17948 8.61864C2.15409 8.61327 2.13887 8.59719 2.13379 8.57037Z" fill="#54A651"/>
<path d="M2.4834 8.98962C2.50878 8.99767 2.52401 9.01375 2.52909 9.03788C2.5037 9.03252 2.49101 9.01644 2.4834 8.98962Z" fill="#54A651"/>
<path d="M2.44336 8.9436C2.4662 8.95165 2.48143 8.96773 2.48905 8.99186C2.46367 8.98382 2.44844 8.96773 2.44336 8.9436Z" fill="#54A651"/>
<path d="M2.40039 8.89478C2.41562 8.91086 2.42831 8.92695 2.44354 8.94304C2.4207 8.93768 2.40547 8.92159 2.40039 8.89478Z" fill="#54A651"/>
<path d="M2.35938 8.84644C2.3746 8.86252 2.3873 8.87861 2.40252 8.8947C2.3873 8.87861 2.37207 8.86252 2.35938 8.84644Z" fill="#54A651"/>
<path d="M2.31738 8.80042C2.33007 8.8165 2.34277 8.83259 2.35799 8.84868C2.33261 8.84063 2.31992 8.82455 2.31738 8.80042Z" fill="#54A651"/>
<path d="M2.27637 8.75171C2.28906 8.76511 2.30175 8.7812 2.31444 8.79461C2.2916 8.78925 2.27891 8.77584 2.27637 8.75171Z" fill="#54A651"/>
<path d="M2.08984 8.52441C2.11269 8.53246 2.12792 8.54855 2.13299 8.57268C2.11015 8.56463 2.09746 8.54855 2.08984 8.52441Z" fill="#54A651"/>
<path d="M2.04883 8.47607C2.06406 8.49216 2.07675 8.50825 2.09198 8.52434C2.06913 8.51629 2.0539 8.50021 2.04883 8.47607Z" fill="#54A651"/>
</svg>
